<?xml version="1.0" encoding="utf-8"?>
<!-- Generator: Adobe Illustrator 26.0.2, SVG Export Plug-In . SVG Version: 6.00 Build 0)  -->
<svg version="1.1" id="Layer_1" xmlns="http://www.w3.org/2000/svg" xmlns:xlink="http://www.w3.org/1999/xlink" x="0px" y="0px"
	 viewBox="0 0 142 33" enable-background="new 0 0 142 33" xml:space="preserve">
<g>
	<path fill="#FFFFFF" d="M18.2,15.8c0,5.7-3.5,9.2-8.6,9.2c-5.2,0-8.2-3.9-8.2-8.9c0-5.3,3.4-9.2,8.5-9.2
		C15.3,6.9,18.2,10.9,18.2,15.8z M5.6,16c0,3.4,1.6,5.9,4.3,5.9c2.7,0,4.2-2.5,4.2-6c0-3.1-1.5-5.9-4.2-5.9
		C7.1,10.1,5.6,12.6,5.6,16z"/>
	<path fill="#FFFFFF" d="M33,6.3v14.7c0,1.4,0.1,2.9,0.1,3.8h-3.5l-0.2-1.9h-0.1c-0.8,1.4-2.3,2.2-4,2.2c-3,0-5.4-2.6-5.4-6.5
		c0-4.3,2.7-6.8,5.7-6.8c1.6,0,2.8,0.5,3.4,1.4h0.1V6.3H33z M29.1,17.4c0-0.2,0-0.5-0.1-0.7c-0.2-1.1-1.1-2-2.3-2
		c-1.8,0-2.7,1.6-2.7,3.6c0,2.2,1.1,3.5,2.7,3.5c1.1,0,2.1-0.8,2.3-1.9c0.1-0.3,0.1-0.6,0.1-0.9V17.4z"/>
	<path fill="#FFFFFF" d="M36.2,16.1c0-1.6-0.1-2.9-0.1-4.1h3.4l0.2,1.7h0.1c0.5-0.8,1.8-2,3.9-2c2.6,0,4.5,1.7,4.5,5.5v7.5h-4v-7
		c0-1.6-0.6-2.8-2-2.8c-1.1,0-1.7,0.8-2,1.5c-0.1,0.2-0.2,0.6-0.2,1v7.3h-4V16.1z"/>
	<path fill="#FFFFFF" d="M64,18.2c0,4.7-3.3,6.8-6.7,6.8c-3.7,0-6.6-2.4-6.6-6.6c0-4.1,2.7-6.7,6.8-6.7C61.4,11.7,64,14.4,64,18.2z
		 M54.8,18.4c0,2.2,0.9,3.8,2.6,3.8c1.5,0,2.5-1.5,2.5-3.8c0-1.9-0.7-3.8-2.5-3.8C55.5,14.5,54.8,16.5,54.8,18.4z"/>
	<path fill="#FFFFFF" d="M86.6,18c-0.1-2.1-0.2-4.7-0.2-7.2h-0.1c-0.5,2.2-1.3,4.7-2,6.8l-2.1,6.8h-3.1l-1.9-6.8
		c-0.6-2.1-1.2-4.6-1.6-6.8h-0.1c-0.1,2.4-0.2,5.1-0.3,7.3l-0.3,6.7h-3.7l1.1-17.5h5.3l1.7,5.9c0.5,2,1.1,4.2,1.5,6.3h0.1
		c0.5-2,1.1-4.3,1.7-6.3l1.9-5.8h5.2l1,17.5h-3.9L86.6,18z"/>
	<path fill="#FFFFFF" d="M96.8,19.6c0.1,1.6,1.7,2.4,3.6,2.4c1.4,0,2.4-0.2,3.5-0.5l0.5,2.7c-1.3,0.5-2.9,0.8-4.6,0.8
		c-4.3,0-6.8-2.5-6.8-6.5c0-3.2,2-6.8,6.4-6.8c4.1,0,5.7,3.2,5.7,6.3c0,0.7-0.1,1.3-0.1,1.6H96.8z M101.4,16.9c0-1-0.4-2.6-2.2-2.6
		c-1.7,0-2.3,1.5-2.4,2.6H101.4z"/>
	<path fill="#FFFFFF" d="M107.5,21.3c0.7,0.4,2.2,1,3.4,1c1.2,0,1.7-0.4,1.7-1.1c0-0.6-0.4-1-1.9-1.5c-2.6-0.9-3.6-2.3-3.6-3.8
		c0-2.4,2-4.2,5.2-4.2c1.5,0,2.8,0.3,3.6,0.7l-0.7,2.7c-0.6-0.3-1.7-0.7-2.8-0.7c-1,0-1.5,0.4-1.5,1c0,0.6,0.5,0.9,2.1,1.5
		c2.4,0.8,3.4,2.1,3.5,3.9c0,2.4-1.9,4.1-5.5,4.1c-1.7,0-3.1-0.4-4.1-0.9L107.5,21.3z"/>
	<path fill="#FFFFFF" d="M123.2,8.4V12h2.8v2.9h-2.8v4.6c0,1.5,0.4,2.2,1.6,2.2c0.5,0,0.9-0.1,1.2-0.1l0,3c-0.5,0.2-1.5,0.3-2.6,0.3
		c-1.3,0-2.3-0.4-3-1.1c-0.7-0.8-1.1-2-1.1-3.8v-5.2h-1.7V12h1.7V9.3L123.2,8.4z"/>
	<path fill="#FFFFFF" d="M140.7,18.2c0,4.7-3.3,6.8-6.7,6.8c-3.7,0-6.6-2.4-6.6-6.6c0-4.1,2.7-6.7,6.8-6.7
		C138.1,11.7,140.7,14.4,140.7,18.2z M131.5,18.4c0,2.2,0.9,3.8,2.6,3.8c1.5,0,2.5-1.5,2.5-3.8c0-1.9-0.7-3.8-2.5-3.8
		C132.2,14.5,131.5,16.5,131.5,18.4z"/>
</g>
</svg>
