<?xml version="1.0" encoding="utf-8"?>
<!-- Generator: Adobe Illustrator 26.0.2, SVG Export Plug-In . SVG Version: 6.00 Build 0)  -->
<svg version="1.1" id="Layer_1" xmlns="http://www.w3.org/2000/svg" xmlns:xlink="http://www.w3.org/1999/xlink" x="0px" y="0px"
	 viewBox="0 0 1060 1060" style="enable-background:new 0 0 1060 1060;" xml:space="preserve">
<path d="M426.2,455.8c-13.5-17.3-31.2-30.8-51.4-39.4c-73.6-31.1-159.4,17.9-169.9,97c-10.5,78.8,52,146.3,131.4,141.7
	c64.2-3.7,116.7-60.6,115.4-125c-0.4-19.4-2.2-39,0.1-58.1c6.6-54.4,50.6-92.5,105.4-93.5c29.5-0.5,57.2,5.5,80.9,24.2
	c10.9,8.6,19.7,19.4,25.8,31.8c1.1,2.3,2.5,4.4,4.3,7.7c1.1-1.5,2-3.1,2.9-4.8c13.1-34,38.6-52.7,74-57.5c34-4.7,66.9-0.6,96,19.5
	c29.7,20.5,45.9,49.5,46.6,85.2c1.1,61.8,0.4,123.6,0.4,185.4c0,11.8-8,19.7-19.2,19.7c-11.6,0-19.7-8-19.7-20.1
	c0-58.6,0.5-117.2-0.2-175.8c-0.4-29.9-21.2-72.8-62.9-81.3c-48.3-9.7-93.1,22.8-96,71.9c-1.5,24.8-0.8,49.7-0.9,74.6
	c-0.1,35,0,69.9,0,104.9c0,3-0.1,5.9-0.4,8.9c-0.9,8.9-7.9,15.9-16.8,16.8c-10.3,0.9-18.1-4-20.8-13.7c-0.9-3.6-1.4-7.2-1.3-10.9
	c0-56.1,0.3-112.3,0-168.4c-0.3-50.3-38.1-85.1-88.4-82.4c-38.1,2.1-62.2,23.8-69.2,64.1c-2.8,16.5-4.3,33.2-4.4,49.9
	c-0.8,80.9-59.9,147.3-140.2,156.6c-82.3,9.6-158.8-47.5-173.5-129.5c-15.8-87.7,45.8-172.1,134.2-184.1c27.6-4,55.9-0.4,81.7,10.3
	c27.2,11.1,43,39.7,38,68.7C427.6,451.8,427,453.2,426.2,455.8z"/>
</svg>
