<?xml version="1.0" encoding="utf-8"?>
<!-- Generator: Adobe Illustrator 26.0.2, SVG Export Plug-In . SVG Version: 6.00 Build 0)  -->
<svg version="1.2" baseProfile="tiny" id="Layer_1" xmlns="http://www.w3.org/2000/svg" xmlns:xlink="http://www.w3.org/1999/xlink"
	 x="0px" y="0px" viewBox="0 0 142 33" overflow="visible" xml:space="preserve">
<path fill="#2A2C2D" d="M0,6.7v25.9h3.8V13.9H4l7.7,18.7h3.1l7.7-18.7h0.2v18.7h3.8V6.7h-4.8l-8.3,20.1h-0.3L4.8,6.7H0z"/>
<path fill="#2A2C2D" d="M41.1,33c4.3,0,7.3-2.1,8.2-5.2l-3.6-0.6c-0.7,1.8-2.4,2.8-4.5,2.8c-3.3,0-5.5-2.1-5.6-5.8h14v-1.3
	c0-7-4.2-9.8-8.7-9.8c-5.5,0-9.1,4.1-9.1,10.1C31.8,29.1,35.3,33,41.1,33z M35.6,21.2c0.2-2.8,2.2-5.1,5.3-5.1c3,0,4.9,2.2,4.9,5.1
	H35.6z"/>
<path fill="#2A2C2D" d="M68.5,17.9c-0.8-3-3.2-5-7.4-5c-4.4,0-7.6,2.3-7.6,5.7c0,2.8,1.7,4.6,5.4,5.4l3.3,0.7
	c1.9,0.4,2.8,1.3,2.8,2.5c0,1.5-1.6,2.7-4.1,2.7c-2.3,0-3.8-1-4.2-2.9l-3.7,0.6c0.6,3.4,3.5,5.4,7.9,5.4c4.7,0,8-2.5,8-6
	c0-2.7-1.8-4.4-5.4-5.3L60.4,21c-2.2-0.5-3.1-1.2-3.1-2.5c0-1.5,1.6-2.6,3.8-2.6c2.4,0,3.5,1.3,3.9,2.6L68.5,17.9z"/>
<path fill="#2A2C2D" d="M82.3,13.2h-4V8.6h-3.8v4.6h-2.9v3h2.9v11.5c0,3.5,2.7,5.2,5.7,5.2c1.2,0,2-0.2,2.5-0.4l-0.7-3.1
	c-0.3,0.1-0.7,0.2-1.3,0.2c-1.2,0-2.4-0.4-2.4-2.6V16.2h4V13.2z"/>
<path fill="#2A2C2D" d="M94.6,33c5.5,0,9.2-4,9.2-10c0-6-3.6-10-9.2-10c-5.5,0-9.2,4-9.2,10C85.4,29,89,33,94.6,33z M94.6,29.8
	c-3.6,0-5.3-3.1-5.3-6.8c0-3.7,1.7-6.9,5.3-6.9c3.6,0,5.3,3.2,5.3,6.9C99.8,26.7,98.2,29.8,94.6,29.8z"/>
<path fill="#2A2C2D" d="M107.2,8.9h1.1V5.5h1.9c0.1,0,0.1,0,0.2,0l1.8,3.4h1.2l-2-3.6c1.1-0.4,1.6-1.3,1.6-2.4c0-1.5-0.9-2.6-3-2.6
	h-2.9V8.9z M108.2,4.6V1.2h1.9c1.4,0,2,0.7,2,1.7s-0.5,1.7-1.9,1.7H108.2z"/>
<path fill="#2A2C2D" d="M118.8,6.2c0,1.2-0.9,1.8-1.7,1.8c-0.8,0-1.4-0.6-1.4-1.5v-4h-1v4.1c0,1.7,0.9,2.4,2.1,2.4
	c1,0,1.6-0.5,1.9-1.2h0.1v1.1h1V2.4h-1V6.2z"/>
<path fill="#2A2C2D" d="M126.3,3.9c-0.3-0.9-1-1.5-2.3-1.5c-1.4,0-2.4,0.8-2.4,1.9c0,0.9,0.5,1.5,1.7,1.8l1.1,0.3
	c0.7,0.2,1,0.5,1,0.9c0,0.6-0.6,1-1.5,1c-0.8,0-1.3-0.3-1.5-1l-1,0.2c0.2,1.1,1.2,1.7,2.5,1.7c1.5,0,2.6-0.8,2.6-1.9
	c0-0.9-0.6-1.5-1.7-1.8l-1-0.2c-0.8-0.2-1.1-0.4-1.1-0.9c0-0.6,0.6-1,1.4-1c0.9,0,1.2,0.5,1.4,0.9L126.3,3.9z"/>
<path fill="#2A2C2D" d="M132.6,3.9c-0.3-0.9-1-1.5-2.3-1.5c-1.4,0-2.4,0.8-2.4,1.9c0,0.9,0.5,1.5,1.7,1.8l1.1,0.3
	c0.7,0.2,1,0.5,1,0.9c0,0.6-0.6,1-1.5,1c-0.8,0-1.3-0.3-1.5-1l-1,0.2c0.2,1.1,1.2,1.7,2.5,1.7c1.5,0,2.6-0.8,2.6-1.9
	c0-0.9-0.6-1.5-1.7-1.8l-1-0.2c-0.8-0.2-1.1-0.4-1.1-0.9c0-0.6,0.6-1,1.4-1c0.9,0,1.2,0.5,1.4,0.9L132.6,3.9z"/>
<path fill="#2A2C2D" d="M134.2,8.9h1V2.4h-1V8.9z M134.7,1.3c0.4,0,0.7-0.3,0.7-0.7c0-0.4-0.3-0.7-0.7-0.7c-0.4,0-0.7,0.3-0.7,0.7
	C134,1,134.3,1.3,134.7,1.3z"/>
<path fill="#2A2C2D" d="M139,9c1.1,0,1.7-0.6,1.9-1h0.1v0.9h1V4.6c0-2.1-1.6-2.3-2.4-2.3c-1,0-2.1,0.3-2.6,1.5l1,0.3
	c0.2-0.5,0.7-1,1.7-1c0.9,0,1.4,0.5,1.4,1.3v0c0,0.5-0.5,0.4-1.7,0.6c-1.2,0.2-2.5,0.4-2.5,1.9C136.8,8.3,137.8,9,139,9z M139.2,8.2
	c-0.8,0-1.4-0.4-1.4-1c0-0.8,0.7-1,1.5-1.1c0.4-0.1,1.6-0.2,1.7-0.4v0.9C141,7.4,140.3,8.2,139.2,8.2z"/>
</svg>
