<?xml version="1.0" encoding="utf-8"?>
<!-- Generator: Adobe Illustrator 26.0.2, SVG Export Plug-In . SVG Version: 6.00 Build 0)  -->
<svg version="1.1" id="Layer_1" xmlns="http://www.w3.org/2000/svg" xmlns:xlink="http://www.w3.org/1999/xlink" x="0px" y="0px"
	 viewBox="0 0 300 42" style="enable-background:new 0 0 300 42;" xml:space="preserve">
<style type="text/css">
	.st0{fill:#FFFFFF;}
</style>
<path class="st0" d="M94.3,14.2c-0.1-4.8-2.2-8.6-6.1-11.3C84.3,0.2,80-0.4,75.5,0.2c-4.7,0.6-8,3.1-9.7,7.7
	c-0.1,0.2-0.2,0.4-0.4,0.6c-0.2-0.4-0.4-0.7-0.6-1c-0.8-1.7-2-3.1-3.4-4.2C58.3,0.8,54.7,0,50.8,0c-6,0.1-11.1,3.7-13.1,9
	c0,0,0,0,0,0c-3.3-4.8-8.5-8.2-14.5-8.9C12.3-1.1,2.3,6.5,0.3,17.4C0.1,18.5,0,19.7,0,20.8h0c0,0,0,0,0,0c0,0,0,0,0,0h0
	c0,1.1,0.1,2.2,0.3,3.3c1.9,10.9,12,18.5,22.9,17.2c10.3-1.2,18-10.2,18.4-20.6h0c0,0,0,0,0,0c0,0,0,0,0,0c0-0.3,0-0.5,0-0.8
	c0-2.2,0.2-4.4,0.6-6.6c0.9-5.4,4.1-8.3,9.1-8.5C58,4.4,63,9.1,63,15.8c0,7.5,0,15,0,22.4c0,0.5,0.1,1,0.2,1.5
	c0.4,1.3,1.4,1.9,2.7,1.8c1.2-0.1,2.1-1.1,2.2-2.2c0-0.4,0.1-0.8,0.1-1.2c0-4.7,0-9.3,0-14c0-3.3-0.1-6.6,0.1-9.9
	c0.4-6.5,6.3-10.9,12.6-9.6c5.5,1.1,8.2,6.8,8.3,10.8c0.1,7.8,0,15.6,0,23.4c0,1.6,1.1,2.7,2.6,2.7c1.5,0,2.5-1.1,2.5-2.6
	C94.4,30.6,94.5,22.4,94.3,14.2z M21.7,37.4C12,38,4.2,30.3,4.2,20.8c0-9.5,7.7-17.2,17.5-16.6c8.3,0.5,15.1,8.3,15.2,16.6
	C36.8,29.1,30,36.9,21.7,37.4z"/>
<g>
	<path class="st0" d="M128.4,7.9c3.6,0,6.7,1.3,9.2,3.8c2.5,2.5,3.8,5.6,3.8,9.3c0,3.7-1.3,6.8-3.8,9.3c-2.5,2.5-5.6,3.8-9.2,3.8
		c-3.6,0-6.7-1.3-9.2-3.8c-2.5-2.5-3.8-5.6-3.8-9.3c0-3.7,1.3-6.8,3.8-9.3C121.7,9.1,124.8,7.9,128.4,7.9z M128.4,12.8
		c-2.3,0-4.2,0.8-5.7,2.3c-1.5,1.6-2.3,3.5-2.3,5.8c0,2.3,0.8,4.2,2.3,5.8c1.6,1.6,3.5,2.4,5.7,2.4c2.3,0,4.2-0.8,5.7-2.4
		c1.6-1.6,2.3-3.5,2.3-5.8c0-2.3-0.8-4.2-2.3-5.8C132.6,13.6,130.7,12.8,128.4,12.8z"/>
	<path class="st0" d="M152.5,20.3c-1.2,0-2.2,0.4-3.1,1.3c-0.8,0.9-1.3,1.9-1.3,3.1c0,1.2,0.4,2.2,1.3,3.1c0.8,0.8,1.9,1.3,3.1,1.3
		c1.2,0,2.2-0.4,3.1-1.3c0.9-0.9,1.3-1.9,1.3-3.1V10.3c0-0.7,0.2-1.3,0.7-1.8c0.5-0.5,1-0.7,1.7-0.7c0.7,0,1.3,0.2,1.8,0.7
		c0.5,0.5,0.7,1,0.7,1.8v14.3c0,2.6-0.9,4.8-2.7,6.6c-1.8,1.8-4,2.7-6.6,2.7c-2.6,0-4.8-0.9-6.5-2.7c-1.8-1.8-2.7-4-2.7-6.6
		c0-2.6,0.9-4.8,2.7-6.6c1.8-1.8,4-2.7,6.6-2.7c0.7,0,1.3,0.2,1.8,0.7c0.5,0.5,0.7,1.1,0.7,1.8s-0.2,1.3-0.7,1.8
		S153.2,20.3,152.5,20.3z"/>
	<path class="st0" d="M182.3,42h-0.1c-2.2,0-4.1-0.8-5.6-2.3c-1.5-1.5-2.2-3.4-2.2-5.6v-1.7v-9.2c0-0.8-0.3-1.5-0.9-2.1
		c-0.6-0.6-1.3-0.9-2.1-0.9c-0.8,0-1.5,0.3-2.1,0.8c-0.6,0.6-0.9,1.3-0.9,2.1v8.3c0,0.7-0.2,1.3-0.7,1.8c-0.5,0.5-1,0.7-1.8,0.7
		c-0.7,0-1.3-0.2-1.8-0.7c-0.4-0.5-0.7-1-0.7-1.8v-8.3c0-2.2,0.8-4.1,2.3-5.6c1.5-1.5,3.4-2.3,5.5-2.3c2.2,0,4,0.8,5.5,2.3
		c1.5,1.5,2.3,3.4,2.3,5.6v10.9c0,0.8,0.3,1.5,0.8,2.1c0.6,0.6,1.3,0.9,2.1,0.9h0.1c0.7,0,1.3,0.2,1.8,0.7c0.5,0.5,0.7,1.1,0.7,1.8
		c0,0.7-0.2,1.3-0.7,1.8C183.6,41.8,183,42,182.3,42z"/>
	<path class="st0" d="M190.4,15.3c2.6,0,4.8,0.9,6.6,2.7c1.8,1.8,2.7,4,2.7,6.6s-0.9,4.9-2.7,6.7c-1.8,1.8-4,2.7-6.6,2.7
		s-4.8-0.9-6.6-2.7c-1.8-1.8-2.7-4-2.7-6.7s0.9-4.8,2.7-6.6C185.6,16.2,187.8,15.3,190.4,15.3z M190.4,20.3c-1.2,0-2.2,0.4-3.1,1.3
		c-0.8,0.9-1.3,1.9-1.3,3.1c0,1.2,0.4,2.3,1.3,3.1c0.8,0.9,1.9,1.3,3.1,1.3c1.2,0,2.2-0.4,3.1-1.3c0.9-0.9,1.3-1.9,1.3-3.1
		c0-1.2-0.4-2.3-1.3-3.1C192.6,20.7,191.6,20.3,190.4,20.3z"/>
	<path class="st0" d="M222.5,15.8c0-0.8-0.3-1.5-0.8-2.1c-0.6-0.6-1.2-0.9-2-0.9c-1,0-1.7,0.4-2.3,1.2v17.6c0,0.7-0.2,1.3-0.7,1.8
		c-0.5,0.5-1,0.7-1.8,0.7s-1.3-0.2-1.8-0.7c-0.4-0.4-0.7-1-0.7-1.8V15.8c0-0.8-0.3-1.5-0.9-2.1c-0.6-0.6-1.3-0.9-2.1-0.9
		c-0.8,0-1.5,0.3-2.1,0.9c-0.6,0.6-0.8,1.3-0.8,2.1v15.8c0,0.7-0.2,1.3-0.7,1.8c-0.4,0.5-1,0.7-1.8,0.7c-0.7,0-1.3-0.2-1.8-0.7
		c-0.5-0.4-0.7-1-0.7-1.8V15.8c0-2.2,0.8-4.1,2.3-5.6c1.5-1.5,3.4-2.3,5.5-2.3c1.9,0,3.6,0.6,5.1,1.9c1.4-1.3,3.1-1.9,5.1-1.9
		c2.2,0,4,0.8,5.5,2.3c1.5,1.5,2.2,3.4,2.2,5.6v18.3c0,0.8,0.3,1.5,0.8,2.1c0.6,0.6,1.3,0.9,2.1,0.9h0.1c0.7,0,1.3,0.2,1.8,0.7
		c0.5,0.5,0.7,1.1,0.7,1.8c0,0.7-0.2,1.3-0.7,1.8c-0.5,0.4-1,0.7-1.8,0.7h-0.1c-2.2,0-4-0.8-5.5-2.3c-1.5-1.5-2.3-3.4-2.3-5.6V15.8z
		"/>
	<path class="st0" d="M244.9,21.9l-4.6,4.6c-0.5,0.5-1.1,0.7-1.7,0.7c-0.7,0-1.3-0.3-1.8-0.8c-0.5-0.5-0.7-1.1-0.7-1.8
		c0-0.6,0.3-1.2,0.8-1.7l2.6-2.6c-0.3-0.1-0.6-0.1-0.9-0.1c-1.2,0-2.2,0.4-3.1,1.3c-0.8,0.9-1.3,1.9-1.3,3.1c0,1.2,0.4,2.3,1.3,3.1
		c0.8,0.9,1.9,1.3,3.1,1.3h3.2c0.7,0,1.3,0.2,1.8,0.7c0.4,0.4,0.7,1,0.7,1.8c0,0.7-0.2,1.3-0.7,1.8c-0.4,0.5-1,0.7-1.8,0.7h-3.2
		c-2.6,0-4.8-0.9-6.6-2.7c-1.8-1.8-2.7-4-2.7-6.7s0.9-4.8,2.7-6.6c1.8-1.8,4-2.7,6.6-2.7c2.6,0,4.9,1,6.7,2.9
		c0.5,0.5,0.7,1.1,0.7,1.7C245.9,20.7,245.6,21.4,244.9,21.9z"/>
	<path class="st0" d="M258,21c-0.4,0.4-0.6,0.9-0.6,1.5v4.2c0,2-0.7,3.7-2.1,5.1c-1.4,1.4-3,2.1-5,2.1c-0.7,0-1.3-0.2-1.8-0.7
		c-0.4-0.4-0.7-1-0.7-1.8s0.2-1.3,0.7-1.8c0.4-0.5,1-0.7,1.8-0.7c0.6,0,1.1-0.2,1.6-0.6c0.4-0.4,0.6-1,0.6-1.6c0-0.2,0-0.5,0-0.7
		c0-1,0-1.5,0-1.5v-2c0-2,0.7-3.7,2-5.1c1.4-1.4,3.1-2.1,5.1-2.1c0.7,0,1.3,0.2,1.8,0.7c0.5,0.5,0.7,1,0.7,1.8
		c0,0.7-0.2,1.3-0.7,1.7c-0.4,0.4-1,0.7-1.7,0.7C259,20.3,258.4,20.6,258,21z"/>
	<path class="st0" d="M279.6,26.1c0,2.2-0.7,4.1-2.2,5.6c-1.5,1.5-3.3,2.3-5.5,2.3c-2.2,0-4.1-0.8-5.6-2.3c-1.5-1.5-2.2-3.4-2.2-5.6
		V13.5c0-0.7,0.2-1.3,0.7-1.8c0.4-0.5,1-0.7,1.8-0.7c0.7,0,1.3,0.2,1.8,0.7c0.5,0.5,0.7,1.1,0.7,1.8v1.9h8.3c0.7,0,1.3,0.2,1.8,0.7
		c0.4,0.5,0.7,1,0.7,1.8c0,1.7-0.8,2.5-2.4,2.5h-8.3v5.7c0,0.8,0.3,1.5,0.8,2.1c0.6,0.6,1.3,0.9,2.1,0.9c0.8,0,1.5-0.3,2.1-0.9
		c0.6-0.6,0.8-1.3,0.8-2.1v-0.3c0-0.7,0.2-1.3,0.7-1.8c0.5-0.5,1.1-0.7,1.8-0.7c0.7,0,1.3,0.2,1.7,0.7c0.5,0.5,0.7,1,0.7,1.8V26.1z"
		/>
	<path class="st0" d="M290.8,15.3c2.6,0,4.8,0.9,6.6,2.7c1.8,1.8,2.7,4,2.7,6.6s-0.9,4.9-2.7,6.7c-1.8,1.8-4,2.7-6.6,2.7
		c-2.6,0-4.8-0.9-6.6-2.7c-1.8-1.8-2.7-4-2.7-6.7s0.9-4.8,2.7-6.6C286,16.2,288.2,15.3,290.8,15.3z M290.8,20.3
		c-1.2,0-2.2,0.4-3.1,1.3c-0.8,0.9-1.3,1.9-1.3,3.1c0,1.2,0.4,2.3,1.3,3.1c0.8,0.9,1.9,1.3,3.1,1.3c1.2,0,2.2-0.4,3.1-1.3
		c0.9-0.9,1.3-1.9,1.3-3.1c0-1.2-0.4-2.3-1.3-3.1C293,20.7,292,20.3,290.8,20.3z"/>
</g>
</svg>
